<svg width="414" height="379" viewBox="0 0 414 379" fill="none" xmlns="http://www.w3.org/2000/svg">
<path d="M212.856 120.981C212.883 122.134 212.789 123.286 212.577 124.422C212.534 124.622 212.491 124.602 212.426 124.822C212.405 124.917 212.376 125.011 212.34 125.102C212.315 125.226 212.279 125.348 212.233 125.467C212.213 125.596 212.184 125.722 212.147 125.847C212.04 126.208 211.911 126.553 211.782 126.873C211.653 127.193 211.525 127.598 211.374 127.938C211.288 128.118 211.224 128.278 211.138 128.438C211.052 128.598 210.988 128.778 210.902 128.939C210.816 129.099 210.73 129.279 210.644 129.439C210.473 129.779 210.279 130.124 210.108 130.439C209.936 130.754 209.721 131.084 209.501 131.404C209.392 131.6 209.27 131.788 209.136 131.97C209.05 132.07 208.986 132.19 208.9 132.29C208.728 132.53 208.557 132.755 208.363 132.995C208.041 133.395 207.735 133.78 207.392 134.14C207.34 134.211 207.282 134.278 207.22 134.34C207.113 134.48 206.984 134.6 206.877 134.74C206.863 134.745 206.848 134.745 206.834 134.74C206.726 134.86 206.619 134.981 206.512 135.081C206.318 135.301 206.104 135.521 205.884 135.726C205.619 136.002 205.338 136.265 205.041 136.511C204.934 136.631 204.805 136.731 204.697 136.831C204.176 137.308 203.628 137.759 203.055 138.182C202.819 138.382 202.518 138.582 202.277 138.787C202.12 138.918 201.953 139.038 201.778 139.147C201.434 139.407 201.064 139.647 200.704 139.912C199.475 140.717 198.198 141.503 196.883 142.248C192.027 144.971 186.896 147.244 181.564 149.035C180.137 149.535 178.714 149.98 177.27 150.406L175.821 150.831C175.413 150.951 175 151.071 174.592 151.171C174.399 151.231 174.206 151.271 174.007 151.331L172.907 151.631C172.064 151.851 171.2 152.076 170.357 152.276C170.293 152.376 170.229 152.456 170.186 152.536C169.842 153.036 169.515 153.537 169.171 154.037C168.586 154.882 168.006 155.707 167.443 156.538C166.493 157.868 165.521 159.174 164.507 160.444L164.142 160.909C164.104 160.966 164.061 161.02 164.013 161.069L163.884 161.249C163.562 161.629 163.256 162.014 162.934 162.395C161.27 164.43 159.478 166.396 157.642 168.292C158.015 168.449 158.364 168.652 158.678 168.897C158.803 168.993 158.918 169.1 159.022 169.217C160.535 170.767 162.371 171.993 164.013 173.443C164.292 173.683 164.55 173.943 164.856 174.209C167.061 176.275 168.441 178.983 168.769 181.881C169.026 183.792 166.826 185.382 164.969 185.382C164.649 185.38 164.331 185.347 164.019 185.282C163.856 185.245 163.697 185.198 163.541 185.142C162.178 184.597 161.394 184.412 161.185 182.981C161.145 182.441 160.899 181.931 160.49 181.545C160.081 181.16 159.537 180.924 158.957 180.881C158.742 176.779 158.522 179.38 158.308 179.24C156.751 177.91 155.087 176.194 153.686 174.739C153.321 174.29 153.05 173.781 152.887 173.238C150.391 175.614 147.863 177.615 145.228 179.67C145.099 179.77 144.97 179.79 144.841 179.89C144.584 180.09 144.304 180.271 144.063 180.456C142.592 181.581 141.105 182.661 139.592 183.747C138.878 184.247 138.561 184.747 137.826 185.247C135.84 186.618 133.892 187.938 132.131 189.209V114.594H211.509C212.312 116.278 212.767 118.089 212.85 119.931C212.856 120.176 212.856 120.741 212.856 120.981Z" fill="#FFE7C2"/>
<path d="M209.485 131.474C207.166 134.65 202.126 139.027 198.627 141.058C176.218 154.062 145.775 150.561 120.264 144.169C94.7532 137.776 71.7274 125.097 49.0183 112.563C41.327 108.317 25.9389 103.445 21.2747 96.3327C40.5433 71.7345 68.2494 38.0984 97.8072 25.8593C98.2149 25.6908 98.667 25.639 99.1063 25.7105C99.5456 25.782 99.9522 25.9736 100.274 26.2609C100.597 26.5483 100.82 26.9184 100.916 27.3242C101.012 27.7301 100.976 28.1533 100.813 28.5402C97.775 35.6576 93.8032 45.0207 93.6315 51.2177C93.4221 58.8403 94.8337 65.0423 102.708 67.113C111.83 69.4433 120.783 72.3151 129.512 75.7109C145.523 82.053 146.081 98.8836 162.907 102.985C169.885 104.695 181.258 102.84 188.477 102.795C195.696 102.75 209.088 106.851 211.31 113.258C212.577 116.91 211.782 128.298 209.485 131.474Z" fill="white"/>
<path d="M148.045 182.571C147.916 182.315 147.748 182.077 147.546 181.866C147.123 181.457 146.627 181.118 146.081 180.866V180.906C146.141 180.995 146.193 181.089 146.237 181.186C146.323 181.331 146.408 181.486 146.484 181.631C146.521 181.691 146.548 181.751 146.575 181.801C146.645 181.936 146.709 182.061 146.773 182.191L146.838 182.316C146.902 182.43 146.96 182.547 147.01 182.666L147.117 182.896C147.16 182.981 147.203 183.066 147.24 183.156C147.369 183.442 147.487 183.727 147.611 184.017C147.766 184.397 147.911 184.787 148.045 185.177C148.131 185.427 148.223 185.677 148.303 185.967C148.615 185.654 148.977 185.388 149.377 185.177C148.985 184.322 148.512 183.447 148.045 182.571Z" fill="#FFE7C2"/>
<path d="M197.763 164.4C197.067 164.159 196.493 163.684 196.153 163.07C195.944 162.52 195.885 161.931 195.981 161.354C196.07 161.214 196.153 161.074 196.228 160.934C196.598 161.569 196.915 162.154 197.172 162.725L197.371 163.175C197.414 163.295 197.457 163.415 197.494 163.54C197.532 163.665 197.586 163.82 197.634 163.965C197.682 164.11 197.731 164.255 197.763 164.4Z" fill="#FFE7C2"/>
<path d="M212.587 123.942C212.544 124.162 212.502 124.367 212.437 124.587C212.417 124.722 212.388 124.855 212.351 124.987C212.304 125.152 212.268 125.319 212.244 125.487C212.29 125.368 212.326 125.246 212.351 125.122C212.387 125.031 212.416 124.937 212.437 124.842C212.502 124.622 212.544 124.642 212.587 124.442C212.8 123.306 212.893 122.154 212.866 121.001C212.87 121.987 212.776 122.971 212.587 123.942ZM211.782 126.883C211.911 126.563 212.04 126.218 212.147 125.857C212.184 125.732 212.213 125.606 212.233 125.477C212.192 125.581 212.163 125.688 212.147 125.797C212.029 126.158 211.922 126.518 211.782 126.883ZM132.147 188.808V189.208C133.908 187.938 135.856 186.613 137.842 185.242C138.577 184.742 138.916 184.242 139.64 183.742C138.926 184.242 138.266 184.742 137.536 185.242C135.765 186.473 133.908 187.663 132.147 188.808Z" fill="#FFE7C2"/>
<path d="M455.327 189.759C455.268 191.829 455.145 193.905 455.021 195.996C454.517 204.138 453.626 212.406 452.434 220.924C452.128 223.225 451.785 225.506 451.441 227.821C449.885 238.24 445.296 248.208 438.238 257.686C396.48 313.705 267.289 352.468 155.063 361.266C154.559 361.306 154.07 361.186 153.566 361.226C151.666 361.376 149.809 361.426 147.903 361.426C146.486 361.426 145.075 361.751 143.658 361.806C142.241 361.861 140.867 361.856 139.493 361.896C124.588 362.396 110.434 362.246 97.091 360.605H96.8494C96.6294 360.605 96.3825 360.735 96.1624 360.72C93.7954 360.495 91.4285 360.335 89.1044 360.05C88.4979 359.995 87.9129 359.96 87.3064 359.885L85.7445 359.725C84.773 359.595 83.8015 359.49 82.8515 359.36C82.7495 359.36 82.6314 359.33 82.4865 359.31L82.0034 359.255L80.4684 359.03C77.6774 358.635 74.9078 358.2 72.1973 357.749C71.5908 357.634 71.0058 357.544 70.4154 357.449C68.4349 357.109 66.4704 356.754 64.5114 356.359C64.1464 356.304 63.7814 356.229 63.4379 356.154C61.4574 355.779 59.4929 355.364 57.5339 354.948C57.0884 354.853 56.6214 354.758 56.1813 354.648C55.8592 354.573 55.5533 354.518 55.2527 354.458C54.6248 354.308 54.0182 354.173 53.4117 354.023C51.3668 353.553 49.3272 353.063 47.3037 352.553C43.8257 351.687 40.3906 350.762 36.9502 349.762C36.5476 349.647 36.1612 349.537 35.7747 349.442C34.9267 349.197 34.0948 348.942 33.2682 348.686C31.4863 348.156 29.7097 347.611 27.9492 347.046L24.7288 345.97C22.5068 345.255 20.3008 344.47 18.0948 343.69C17.0643 343.33 16.0499 342.954 15.0408 342.579C14.7993 342.504 14.5577 342.409 14.3109 342.314L13.5809 342.029C12.6524 341.689 11.7184 341.334 10.8114 340.994C9.31388 340.409 7.85934 339.823 6.40479 339.243C4.19883 338.378 1.99823 337.453 -0.186268 336.492C-0.953793 336.152 -1.70522 335.832 -2.45128 335.492C-11.3519 330.873 -19.3391 324.87 -26.0675 317.741C-40.307 301.916 -46.2915 281.584 -47 260.402C-37.151 260.362 30.5684 243.802 34.492 242.371C37.9485 241.111 41.346 239.79 44.6898 238.45C57.5945 233.162 70.0815 227.029 82.0571 220.099C95.1286 212.501 107.677 204.149 119.628 195.09C136.959 182.086 153.442 167.786 170.081 152.731C181.787 142.123 207.228 142.403 210.663 124.977C212.483 115.764 207.164 107.301 196.671 106.436C199.601 90.7758 215.252 71.2544 224.21 57.5198C234.017 42.4448 245.079 27.4648 259.436 15.801C290.636 -9.56244 326.308 -2.00493 356.091 21.5879C417.477 70.274 443.439 109.147 451.973 148.155C452.901 152.356 453.631 156.523 454.119 160.704C454.243 161.439 454.323 162.135 454.404 162.855C454.908 167.246 455.23 171.638 455.354 176.064C455.393 177.231 455.413 178.398 455.413 179.565C455.51 182.956 455.451 186.328 455.327 189.759Z" fill="#34C1CC"/>
<path d="M218.55 161.549C218.184 162.393 217.72 163.196 217.166 163.945C214.788 167.186 210.988 169.422 207.032 170.712C204.013 171.739 200.762 172.023 197.591 171.538C194.629 170.998 191.988 169.452 190.179 167.201C189.877 166.75 189.486 166.358 189.025 166.046C188.048 165.501 186.878 165.876 185.804 165.916C184.788 165.976 183.775 165.765 182.884 165.306C182.284 164.942 181.824 164.409 181.573 163.784C181.321 163.159 181.292 162.476 181.489 161.834C181.532 161.714 181.553 161.614 181.596 161.494L181.661 161.314C181.84 160.875 182.096 160.466 182.418 160.104C182.864 159.611 183.444 159.238 184.097 159.025C184.75 158.812 185.453 158.767 186.132 158.893C187.039 159.053 187.624 158.593 188.467 158.553C188.509 158.553 188.547 158.493 188.59 158.473C188.59 158.093 188.456 157.708 188.456 157.328V157.248C188.456 155.437 189.239 154.512 190.603 153.827C191.139 153.567 191.773 153.967 192.379 153.967H192.508C193.582 153.967 194.623 154.007 195.444 155.152C195.53 155.272 195.691 155.152 195.777 155.262C196.941 157.053 196.802 158.503 196.802 159.994C196.802 160.274 198.262 159.494 198.09 159.809C198.004 159.949 198.09 160.279 198.01 160.419C197.945 161.044 198.831 160.714 199.083 161.159C199.405 161.804 197.076 163.61 197.79 163.61C199.69 165.611 202.545 164.23 204.075 163.79C207.145 162.905 210.601 161.289 211.745 158.288C213.237 154.342 210.446 150.616 208.224 147.455C207.943 147.1 207.749 146.692 207.656 146.26C207.563 145.828 207.574 145.382 207.687 144.954C208.009 143.743 208.116 138.797 209.458 138.452C210.236 138.252 212.142 142.288 212.893 142.553C213.67 142.829 214.329 143.333 214.772 143.988C216.115 145.832 217.258 147.796 218.185 149.85C218.293 150.09 218.379 150.316 218.464 150.556C218.709 151.148 218.919 151.752 219.092 152.366C220.016 155.398 219.825 158.63 218.55 161.549Z" fill="white"/>
<path d="M113.662 124.597C113.705 116.74 119.818 110.062 127.988 108.432C133.892 107.251 131.396 98.8136 125.492 99.9889C113.297 102.42 104.328 113.048 104.269 124.592C104.243 130.224 113.635 130.234 113.662 124.592V124.597Z" fill="#CCB999"/>
<path d="M294.439 142.993C290.928 150.055 288.647 159.048 283.377 165.035C278.455 170.627 269.475 172.538 265.348 178.665C261.542 184.332 261.993 190.029 260.404 196.171C259.079 201.307 257.866 206.454 256.368 211.551C252.619 224.477 247.812 237.117 241.989 249.358C225.635 283.435 194.505 296.244 191.853 297.289C191.703 297.349 191.563 297.409 191.418 297.479C188.107 299.085 153.359 316.861 154.958 355.219C155.03 356.679 154.511 358.111 153.504 359.233C152.498 360.354 151.076 361.083 149.521 361.276C140.837 362.276 131.981 362.191 123.253 361.961C110.791 361.626 98.2901 361.196 85.9345 359.555C77.7923 358.475 70.6699 356.994 64.0037 352.388C53.8648 345.385 47.4723 334.567 43.0282 323.793C33.0503 299.695 28.1768 270.981 29.9373 245.167C31.6173 220.569 49.002 212.051 73.4823 213.832C78.8497 214.227 91.4682 218.283 94.855 212.196C98.0087 206.519 101.497 201.008 105.305 195.691C109.883 189.293 121.155 195.145 116.539 201.593C112.482 207.26 108.798 213.153 105.509 219.238C103.507 224.81 98.8697 241.186 109.175 250.839C109.878 251.493 110.739 251.98 111.687 252.259C118.466 254.26 149.081 261.602 183.4 241.641C220.66 219.964 228.254 166.001 228.254 166.001C228.254 166.001 233.826 125.277 269.169 106.256C270.2 105.695 271.381 105.419 272.574 105.461C273.767 105.502 274.922 105.86 275.905 106.491C283.827 111.638 302.822 126.183 294.439 142.993Z" fill="#4F4B48"/>
<path d="M111.709 349.547C107.787 309.644 94.6892 270.997 73.3055 236.234C67.8845 227.446 53.2639 235.374 58.7064 244.187C78.6755 276.499 90.975 312.427 94.7748 349.547C95.1988 353.783 98.3601 357.424 103.228 357.424C107.501 357.429 112.133 353.813 111.709 349.547Z" fill="#CCB999"/>
<path d="M454.863 162.86C455.179 165.631 389.687 164.81 383.585 163.95C360.921 160.748 339.176 153.346 319.633 142.183C318.56 141.568 317.427 140.923 316.171 140.898C314.765 140.868 313.487 141.608 312.189 142.118C308.609 143.518 304.089 143.013 301.379 140.427C297.423 136.651 298.491 130.924 297.128 126.243C295.582 120.936 291.111 116.239 286.812 112.648C279.641 106.646 270.173 98.3184 260.313 96.7629C257.216 96.2627 250.711 94.3821 253.416 90.2607C253.798 89.6655 255.134 88.5251 255.52 87.9399C256.953 85.7392 271.896 89.4405 274.424 91.171C278.519 93.997 281.445 95.8676 284.042 97.5882C282.362 88.5502 278.364 82.7582 273.42 77.1114C271.494 74.9056 270.946 71.8346 273.318 69.6089C275.31 67.7482 279.405 67.2881 281.369 69.5188C287.626 76.6658 293.233 84.2863 298.132 92.3014C298.801 93.3984 299.455 94.5038 300.096 95.6175C304.881 103.889 308.87 112.539 312.017 121.466C312.666 122.161 313.337 122.842 314.013 123.522C328.811 138.277 350.098 144.719 371.358 146.074C386.649 147.045 421.472 147.715 452.404 148.185C453.327 152.356 454.014 156.528 454.551 160.724C454.691 161.424 454.782 162.145 454.863 162.86Z" fill="#ED995A"/>
<path d="M189.926 123.232C189.367 122.652 188.881 122.014 188.477 121.331L189.341 119.725C190.025 121.019 191.014 122.152 192.235 123.039C193.456 123.925 194.876 124.542 196.39 124.844C197.904 125.145 199.471 125.123 200.974 124.779C202.477 124.434 203.876 123.777 205.068 122.856C205.819 122.291 206.909 123.267 206.141 123.857C201.439 127.448 194.204 127.653 189.926 123.232Z" fill="#FFDBA2"/>
<path d="M455.77 189.754C455.7 191.824 455.593 193.91 455.464 196.011C454.965 204.123 454.052 212.411 452.877 220.929C452.571 223.215 452.233 225.511 451.889 227.831C450.322 238.235 445.76 248.198 438.696 257.676C429.207 257.861 419.76 255.285 410.974 251.894C398.339 247.008 386.397 241.106 373.247 237.389C362.349 234.294 351.154 232.195 339.82 231.122C330.829 236.369 314.883 235.309 306.054 232.448C291.562 227.746 280.387 217.548 274.446 204.439C266.626 187.153 269.03 161.694 250.83 149.92C246.992 147.42 248.098 141.683 252.558 140.462C254.705 139.872 257.039 140.367 258.999 141.363C267.436 145.659 273.34 153.867 279.174 160.709C280.275 162.004 281.439 163.24 282.658 164.43C282.76 161.829 282.985 159.224 283.194 156.648C283.645 151.821 284.139 146.729 283.431 141.873C282.738 141.296 282.25 140.538 282.03 139.697C281.314 137.17 280.609 134.635 279.915 132.095C279.627 131.114 279.679 130.074 280.065 129.124C279.554 128.3 279.051 127.466 278.557 126.623C272.347 116.014 267.168 103.18 255.075 97.213C249.031 94.212 254.254 85.6091 260.292 88.5951C264.084 90.4961 267.514 92.9648 270.447 95.9025C272.208 95.6975 272.937 97.433 275.106 98.3283C280.886 100.719 290.542 119.04 309.29 134.075C318.334 141.328 329.482 147.825 343.351 151.406C357.306 155.017 371.218 158.408 385.705 158.343C394.416 158.343 441.729 161.384 454.578 160.764C454.68 161.474 454.766 162.2 454.847 162.91C455.34 167.291 455.657 171.693 455.797 176.114C455.834 177.275 455.866 178.445 455.872 179.615C455.947 182.941 455.909 186.328 455.77 189.754Z" fill="#EDA671"/>
<path d="M292.877 184.212C287.843 178.89 284.601 172.788 282.142 166.331C281.527 164.69 280.956 163.035 280.43 161.364C281.445 162.575 282.427 163.795 283.382 165.041C284.469 145.55 279.266 126.202 268.445 109.492C269.215 109.416 269.993 109.505 270.721 109.752C271.897 110.182 272.864 110.996 273.442 112.043C279.965 122.977 284.903 134.67 288.127 146.814C290.897 157.083 293.07 168.432 300.815 176.629C305.635 181.716 297.724 189.339 292.877 184.212Z" fill="#ED995A"/>
<path d="M211.755 147.275C211.294 146.944 210.8 146.629 210.29 146.334C208.491 145.314 206.568 144.495 204.563 143.893C202.798 143.347 200.989 142.93 199.153 142.648C198.364 142.528 197.591 142.428 196.845 142.358C191.988 145.08 186.856 147.35 181.521 149.135C173.985 151.642 166.236 153.554 158.356 154.852C150.869 156.137 143.435 156.448 135.872 156.978C131.578 157.283 126.608 157.903 123.377 160.809C122.421 161.67 121.687 162.721 121.23 163.885C120.717 165.181 120.567 166.578 120.797 167.943C121.026 169.307 121.626 170.595 122.54 171.683C123.396 172.694 124.518 173.483 125.796 173.974C127.075 174.465 128.467 174.64 129.839 174.484C131.809 174.284 133.393 172.983 135.357 172.603C140.284 171.803 145.297 171.493 150.246 170.647C155.456 169.76 160.644 168.735 165.811 167.571C170.023 166.618 174.209 165.572 178.371 164.435C179.872 164.032 181.351 163.557 182.799 163.01C184.409 162.375 186.196 162.104 187.801 161.399C189.406 160.694 191.558 157.293 193.474 158.093C193.964 158.343 194.38 158.7 194.687 159.133C196.174 160.934 197.495 162.94 197.908 165.18C198.026 165.846 198.117 166.611 198.708 167.001C199.711 167.666 201.96 167.031 203.055 166.796C204.55 166.479 206 166.001 207.376 165.371C210.146 164.141 212.48 162.197 214.101 159.769C217.638 154.272 215.743 150.135 211.755 147.275Z" fill="#A14532"/>
<path d="M199.153 142.648C198.364 142.528 197.591 142.428 196.845 142.358C191.988 145.08 186.855 147.35 181.521 149.135C173.985 151.642 166.236 153.554 158.356 154.852C150.869 156.137 143.435 156.448 135.872 156.978C131.578 157.283 126.608 157.903 123.377 160.809C122.421 161.67 121.687 162.721 121.23 163.885C122.179 163.494 123.054 162.964 123.823 162.315C124.52 162.72 125.197 163.15 125.857 163.6C126.522 163.5 127.215 163.41 127.918 163.325C132.212 162.79 137.209 162.4 142.555 162.039L144.412 161.919C148.775 161.639 153.332 161.369 157.905 161.049C158.442 161.014 158.979 160.979 159.515 160.934C165.596 160.504 171.678 160.064 177.727 159.304C182.729 158.673 187.823 158.043 192.599 156.468C196.357 155.227 200.591 153.166 202.706 149.87C204.134 147.65 204.676 145.659 204.547 143.868C202.786 143.331 200.982 142.923 199.153 142.648Z" fill="#702010"/>
<path d="M155.962 172.033C159.625 176.398 162.338 181.388 163.949 186.723L162.467 187.068C160.871 181.836 158.185 176.948 154.561 172.683L155.962 172.033Z" fill="#CCB999"/>
<path d="M194.188 183.532C187.747 181.921 181.307 182.691 174.962 184.067L173.476 184.397C173.025 179.648 171.566 175.03 169.182 170.812C168.242 169.132 166.401 166.906 169.031 165.666C169.73 165.39 170.448 165.156 171.178 164.965C173.723 164.125 175.784 162.079 178.462 161.754C181.757 161.359 184.742 163.53 187.366 165.07C191.311 167.386 195.052 169.992 198.879 172.468C204.611 176.164 201.611 185.392 194.188 183.532Z" fill="#CCB999"/>
<path d="M214.348 121.146C213.967 115.499 211.197 110.702 205.846 107.481C200.398 104.205 192.299 105.791 188.789 111.068C185.568 115.934 187.055 122.601 192.986 124.862C194.055 125.272 195.191 125.512 196.346 125.572C198.6 125.687 200.892 126.098 202.674 127.388C203.812 128.215 205.224 128.648 206.667 128.613C210.054 128.543 214.568 124.397 214.348 121.146Z" fill="#6B6561"/>
<path d="M177.866 117.305C183.443 116.029 190.565 109.757 182.697 105.861C174.828 101.965 163.959 106.361 157.406 99.8588C153.837 96.3327 153.649 90.9759 153.482 86.1343C153.343 82.5081 152.988 75.4357 148.952 73.37C145.421 71.5594 140.408 73.4551 139.356 77.1463C139.125 77.9516 139.007 78.7668 138.819 79.5871C138.706 80.1173 138.626 80.6425 138.545 81.1726C137.741 86.8488 138.517 92.6224 140.799 97.9382C141.119 98.6531 141.262 99.4257 141.218 100.199C140.017 116.155 133.04 131.258 121.429 143.038C117.301 147.165 112.68 150.541 107.71 153.717C102.74 156.893 97.5119 160.219 93.7548 164.66C85.1295 174.849 87.5341 187.958 99.047 195.17C105.321 199.102 112.395 199.947 119.443 199.012C122.126 196.731 125.626 195.511 128.959 194.135C133.124 192.43 137.498 189.734 142.195 189.749C142.463 189.746 142.729 189.799 142.973 189.904C143.218 190.008 143.434 190.162 143.606 190.354C145.909 189.088 147.863 187.553 147.755 184.712C147.573 179.985 140.161 170.312 134.155 171.313C132.958 171.513 131.906 172.138 130.752 172.493C127.188 173.583 122.749 171.273 122.266 167.806C121.729 163.805 125.878 160.589 129.925 159.123C135.475 157.123 141.513 156.738 147.428 156.147C152.956 155.602 189.626 153.677 179.847 142.743C177.571 140.202 173.942 139.202 170.722 137.781C165.516 135.476 160.68 131.009 160.9 125.637C160.9 125.511 160.9 125.384 160.9 125.257C161.587 115.764 171.527 118.755 177.866 117.305Z" fill="#CCB999"/>
<path d="M154.352 184.332C153.815 185.332 145.716 189.278 144.653 189.834L143.751 190.334L142.168 191.119C141.195 191.01 140.285 190.609 139.576 189.978C138.867 189.347 138.396 188.519 138.234 187.618C137.08 182.751 133.854 179.255 129.002 177.229C128.375 176.946 127.828 176.53 127.405 176.014C126.982 175.498 126.694 174.897 126.565 174.258C126.422 173.717 126.371 173.159 126.415 172.603C126.415 172.793 128.299 173.023 128.497 173.038C130.044 173.145 131.588 172.806 132.92 172.068C133.634 171.673 134.198 171.067 134.911 170.682C135.443 170.386 135.993 170.121 136.559 169.887C136.838 169.767 137.633 169.272 137.955 169.452C138.277 169.632 137.885 170.627 138.137 170.782C142.549 173.558 147.047 176.019 149.044 180.686C149.451 181.636 154.846 181.531 154.824 182.556C154.812 183.174 154.65 183.78 154.352 184.332Z" fill="#CCB389"/>
<path d="M-46.6541 245.327C-46.7346 245.327 -46.74 245.327 -46.7346 245.327C-46.7292 245.327 -46.5843 245.307 -46.6541 245.327ZM131.911 116.284C129.711 121.681 125.664 126.198 121.177 130.169C120.792 130.223 120.416 130.324 120.06 130.469C113.356 133.345 104.495 131.194 100.834 124.967C96.4117 117.435 101.028 107.386 105.284 100.749C109.1 94.7872 114.081 88.9703 121.091 86.6045C123.393 85.8292 126.082 85.4891 128.197 86.6395C130.312 87.7899 131.256 89.9706 131.954 92.0863C134.493 99.7788 135.03 108.637 131.911 116.274V116.284Z" fill="#6B6561"/>
<path d="M88.0386 159.869C85.355 172.458 76.2305 184.507 62.195 187.443C56.5539 188.623 53.0705 183.341 54.2621 179.485C54.4355 178.879 54.7366 178.311 55.1477 177.815C56.0118 176.819 57.2273 176.142 58.5774 175.904C67.0792 174.123 72.0923 167.796 74.5344 160.544C75.1909 158.605 75.6773 156.619 75.989 154.607C76.5668 150.994 76.7467 147.335 76.5257 143.688C76.4935 143.223 76.4667 142.753 76.413 142.288C75.96 138.568 75.1882 134.889 74.1051 131.284C74.0646 131.06 74.1071 130.83 74.2254 130.632C74.3438 130.434 74.531 130.279 74.7564 130.193C74.9818 130.106 75.2319 130.094 75.4656 130.158C75.6994 130.222 75.9028 130.358 76.0427 130.544C77.7602 133.37 79.5797 136.146 81.4529 138.922C85.6501 145.154 89.6595 152.291 88.0386 159.869Z" fill="#4F4B48"/>
<path d="M175.048 189.884C174.643 192.185 173.616 194.352 172.064 196.181C171.816 196.468 171.549 196.741 171.264 196.996C167.475 200.442 162.199 200.602 157.975 197.731C154.067 195.075 152.489 190.894 150.342 187.058C148.732 184.192 146.859 181.401 144.358 179.135C143.175 178.091 141.851 177.197 140.418 176.474C139.168 175.809 137.568 174.939 137.241 173.513C137.104 172.905 137.039 172.284 137.048 171.663C137.054 171.117 137.113 170.573 137.225 170.037C137.837 166.991 140.053 164.09 143.666 163.74C151.019 163.025 154.985 168.637 157.819 174.003C159.365 176.931 160.913 179.859 162.462 182.786C162.371 181.844 162.203 180.909 161.957 179.99C160.983 176.296 158.904 172.935 155.962 170.297C151.513 166.261 155.425 160.444 160.154 160.014C161.036 159.927 161.927 160.041 162.752 160.344C163.582 160.651 164.336 161.112 164.968 161.699C170.086 166.269 173.544 172.215 174.86 178.705C175.483 182.071 175.821 186.162 175.048 189.884Z" fill="#FF8B73"/>
<path d="M273.351 119.12C273.157 115.279 269.159 112.368 265.096 113.503C255.81 116.084 247.829 122.401 244.163 130.844C242.864 133.845 243.299 137.296 246.616 139.032C249.343 140.462 254.093 139.777 255.402 136.746C257.302 132.355 260.383 128.839 264.618 126.643C268.493 127.953 273.689 126.073 273.436 121.106L273.351 119.12Z" fill="#CCB999"/>
<path d="M277.87 133.49C277.033 132.202 275.682 131.275 274.113 130.914C272.548 130.632 270.926 130.858 269.518 131.554L264.151 133.9C262.831 134.48 261.725 136.116 261.387 137.401C261.009 138.857 261.256 140.393 262.074 141.683C262.911 142.971 264.262 143.897 265.831 144.259C267.396 144.54 269.017 144.314 270.425 143.618L275.793 141.273C277.113 140.692 278.219 139.057 278.557 137.771C278.934 136.315 278.688 134.779 277.87 133.49Z" fill="#CCB999"/>
<path d="M100.716 26.5045C100.895 26.9333 100.929 27.4027 100.813 27.8499C99.7878 32.9816 98.3601 38.0633 97.5067 43.22C96.5513 49.0569 95.8428 54.9289 95.0914 60.7908C94.5547 64.7922 90.4594 66.2176 86.3105 66.4627C85.609 66.5068 84.9062 66.3968 84.2587 66.1416C83.6111 65.8865 83.0369 65.4933 82.5821 64.9936C82.1274 64.4939 81.8048 63.9018 81.6404 63.2648C81.476 62.6278 81.4743 61.9637 81.6355 61.326C83.0954 55.7342 83.7825 49.8922 86.0689 44.6055C88.919 37.9933 92.1877 30.1006 99.2135 26.3694C99.5104 26.1677 99.8807 26.0832 100.244 26.1343C100.346 26.1616 100.441 26.2087 100.523 26.2725C100.604 26.3363 100.67 26.4153 100.716 26.5045Z" fill="#FFE7C2"/>
<path d="M209.442 131.474C207.123 134.65 202.083 139.027 198.584 141.057C176.175 154.062 145.732 150.561 120.221 144.169C94.7103 137.776 71.6952 125.097 48.9754 112.563C41.284 108.317 25.8959 103.445 21.2317 96.3326C41.0049 71.0893 69.6717 36.3127 100.099 24.9389C100.319 24.857 100.56 24.837 100.792 24.8812C101.024 24.9255 101.237 25.0321 101.405 25.188C101.573 25.3439 101.688 25.5421 101.737 25.7583C101.785 25.9745 101.764 26.1991 101.677 26.4044C98.5962 33.6818 93.771 44.3754 93.5885 51.2177C93.3792 58.8402 94.7908 65.0423 102.665 67.1129C111.787 69.4432 120.74 72.315 129.469 75.7108C145.48 82.0529 146.038 98.8835 162.864 102.985C169.842 104.695 181.215 102.84 188.434 102.795C195.653 102.75 209.045 106.851 211.272 113.258C212.534 116.909 211.782 128.298 209.442 131.474Z" fill="#FFE7C2"/>
<path d="M113.619 124.597C113.662 116.74 119.776 110.062 127.945 108.432C133.849 107.251 131.353 98.8136 125.449 99.9889C113.254 102.42 104.286 113.048 104.227 124.592C104.2 130.224 113.593 130.234 113.619 124.592V124.597Z" fill="#CCB999"/>
<path d="M294.439 142.988C290.918 150.055 288.637 159.043 283.377 165.035C278.444 170.632 269.465 172.538 265.337 178.66C261.537 184.332 261.983 190.024 260.383 196.166C259.068 201.307 257.855 206.454 256.358 211.561C252.602 224.482 247.795 237.118 241.979 249.358C225.619 283.43 194.478 296.239 191.832 297.294C191.687 297.35 191.545 297.413 191.408 297.484C188.091 299.085 153.332 316.856 154.948 355.219C155.071 358.255 155.517 361.251 155.517 361.251C154.567 361.366 147.407 361.476 146.156 361.571C137.965 362.231 123.023 362.856 97.2597 360.915C92.8907 360.575 88.2534 360.005 83.3047 359.345C29.1592 352.173 29.9589 253.715 30.6084 235.249C30.6394 234.351 30.8929 233.472 31.3492 232.68C31.8055 231.889 32.4521 231.207 33.2384 230.687C34.3522 229.928 35.1712 228.852 35.572 227.622C35.9728 226.391 35.9336 225.073 35.4604 223.865C35.0518 222.775 34.9811 221.6 35.2565 220.474C36.1689 217.138 39.6469 215.592 43.082 216.102C45.551 216.478 47.9931 216.838 50.4621 217.213C52.0872 217.46 53.7514 217.101 55.0941 216.212L59.1357 213.537C60.4053 212.685 61.9747 212.315 63.5261 212.501L88.5003 215.307C89.7671 215.455 91.052 215.236 92.1804 214.679C93.3087 214.122 94.2258 213.255 94.8069 212.196C97.9654 206.52 101.456 201.01 105.262 195.691C109.83 189.283 121.117 195.145 116.507 201.588C112.441 207.249 108.753 213.139 105.466 219.223C103.464 224.8 98.8162 241.176 109.127 250.824C109.827 251.481 110.687 251.971 111.633 252.254C118.391 254.28 149.022 261.607 183.335 241.636C220.585 219.964 228.185 166.001 228.185 166.001C228.185 166.001 233.788 125.277 269.11 106.266C270.142 105.7 271.325 105.42 272.522 105.46C273.718 105.5 274.877 105.858 275.863 106.491C283.79 111.633 302.78 126.183 294.439 142.988Z" fill="#4F4B48"/>
<path d="M149.522 356.259C149.092 357.919 148.663 359.585 148.378 361.291C148.379 361.362 148.363 361.432 148.332 361.497C148.301 361.562 148.256 361.62 148.199 361.667C148.142 361.715 148.075 361.75 148.002 361.771C147.93 361.793 147.853 361.799 147.777 361.791C145.158 361.906 142.539 362.051 139.919 362.126C125.773 362.614 111.608 362.223 97.5176 360.955C97.0131 358.15 96.6481 356.114 96.5891 355.734C92.4616 334.727 89.2466 313.3 82.0705 292.948C79.0642 284.48 75.6014 276.158 71.6955 268.015C70.359 265.209 61.5244 244.177 58.6743 244.177C53.2373 235.379 67.8525 227.446 73.2734 236.224C77.5673 243.226 81.5445 250.387 85.205 257.706C87.835 263.003 91.211 268.21 93.154 273.782C94.9735 279.003 95.6015 284.54 100.513 288.251C105.424 291.963 112.444 292.113 118.649 293.623C138.325 298.39 146.559 316.441 149.468 333.551C150.251 338.133 151.153 342.744 151.078 347.401C151.04 350.457 150.273 353.348 149.522 356.259Z" fill="#CCB999"/>
<path d="M454.82 162.86C455.136 165.631 389.639 164.81 383.542 163.95C360.877 160.749 339.13 153.35 319.585 142.188C318.511 141.573 317.384 140.927 316.128 140.902C314.722 140.867 313.445 141.608 312.151 142.118C308.571 143.518 304.046 143.013 301.336 140.427C297.386 136.646 298.448 130.924 297.085 126.243C295.545 120.936 291.068 116.239 286.769 112.648C279.598 106.646 270.104 98.3233 260.271 96.7628C257.174 96.2626 250.663 94.387 253.374 90.2606C254.656 88.29 255.971 87.2596 258.521 87.3146C263.153 87.4627 267.71 88.448 271.939 90.2156C276.394 92.0762 280.044 94.9622 283.989 97.5781C283.669 95.8353 283.231 94.1129 282.679 92.4214C281.079 89.7258 279.04 87.2776 276.636 85.1639C273.372 82.238 269.508 79.0569 269.164 74.5204C268.628 67.5931 277.446 63.7868 281.729 69.9589C281.756 69.9988 281.779 70.0406 281.799 70.0839C288.648 77.9465 295.314 86.4944 299.978 95.6524C304.739 104.991 307.632 115.284 314.577 123.552C327.426 138.852 351.397 144.809 371.31 146.059C386.601 147.024 421.424 147.7 452.356 148.175C453.274 152.351 453.966 156.513 454.503 160.714C454.648 161.424 454.734 162.144 454.82 162.86Z" fill="#ED995A"/>
<path d="M455.727 189.754C455.657 191.824 455.55 193.91 455.421 196.011C454.922 204.123 454.009 212.411 452.834 220.929C452.528 223.215 452.19 225.51 451.846 227.831C450.279 238.235 445.717 248.198 438.653 257.676C436.995 259.902 421.419 255.861 418.907 255.23C398.565 250.139 380.853 238.29 360.189 234.203C341.993 230.607 322.923 238 305.066 232.113C291.165 227.531 280.081 216.958 274.403 204.403C266.583 187.118 268.987 161.659 250.787 149.885C246.949 147.385 248.055 141.648 252.515 140.427C254.662 139.837 256.997 140.332 258.956 141.328C267.393 145.624 273.297 153.832 279.131 160.674C280.233 161.971 281.395 163.211 282.615 164.395C282.717 161.794 282.942 159.188 283.151 156.613C283.602 151.786 284.096 146.694 283.388 141.838C282.695 141.261 282.206 140.503 281.987 139.662C281.271 137.134 280.566 134.6 279.872 132.059C279.584 131.079 279.636 130.039 280.022 129.089C279.507 128.265 279.004 127.431 278.514 126.588C272.304 115.979 267.125 103.145 255.032 97.1779C248.989 94.1769 254.211 85.5791 260.249 88.5601C262.793 89.8155 265.128 91.5611 267.49 93.1166C270.049 94.7783 272.508 96.5716 274.854 98.4883C284.472 106.351 290.956 116.624 299.575 125.307C302.617 128.387 305.843 131.304 309.237 134.045C318.281 141.298 329.428 147.795 343.298 151.376C357.253 154.987 371.165 158.378 385.651 158.313C394.362 158.313 441.675 161.354 454.524 160.734C454.626 161.444 454.712 162.169 454.793 162.88C455.287 167.261 455.603 171.663 455.743 176.084C455.78 177.244 455.813 178.415 455.818 179.585C455.904 182.941 455.866 186.327 455.727 189.754Z" fill="#EDA671"/>
<path d="M292.829 184.212C287.794 178.89 284.552 172.788 282.094 166.331C281.482 164.69 280.065 162.83 279.534 161.174C280.548 162.385 281.418 162.55 282.373 163.795C283.447 144.289 279.212 126.228 268.37 109.497C269.14 109.421 269.918 109.51 270.646 109.757C271.822 110.187 272.789 111.001 273.367 112.048C279.89 122.982 284.828 134.675 288.052 146.819C290.821 157.088 292.995 168.437 300.74 176.634C305.592 181.716 297.659 189.338 292.829 184.212Z" fill="#ED995A"/>
<path d="M214.058 159.779C211.138 164.32 205.427 166.886 199.883 167.236C199.537 167.281 199.185 167.245 198.858 167.131C198.149 166.826 197.999 165.976 197.87 165.261C197.36 162.365 195.466 159.759 193.077 157.903C192.99 157.82 192.878 157.764 192.755 157.743C192.613 157.75 192.478 157.803 192.374 157.893L189.03 160.169C188.23 160.714 187.178 161.669 186.116 161.669C185.337 161.999 184.624 162.45 183.845 162.785C182.056 163.448 180.22 163.995 178.349 164.42C174.173 165.564 169.971 166.614 165.741 167.571C160.596 168.735 155.408 169.76 150.176 170.647C145.228 171.488 140.22 171.803 135.287 172.603C133.328 172.983 131.739 174.278 129.77 174.484C128.397 174.64 127.005 174.465 125.726 173.974C124.448 173.483 123.326 172.694 122.47 171.683C121.556 170.595 120.956 169.307 120.727 167.943C120.498 166.578 120.647 165.181 121.16 163.885C121.617 162.721 122.351 161.67 123.307 160.809C126.528 157.903 131.519 157.283 135.803 156.978C143.365 156.448 150.799 156.137 158.286 154.852C166.166 153.554 173.915 151.642 181.452 149.135C186.786 147.35 191.918 145.08 196.775 142.358C197.516 142.428 198.294 142.528 199.083 142.648C200.919 142.93 202.728 143.346 204.493 143.893C206.499 144.495 208.421 145.314 210.22 146.334C210.73 146.629 211.224 146.944 211.686 147.275C215.7 150.135 217.595 154.272 214.058 159.779Z" fill="#A14532"/>
<path d="M202.658 149.88C201.627 151.398 200.219 152.661 198.552 153.562C197.633 154.142 196.677 154.672 195.691 155.147C190.35 157.448 184.291 158.258 178.516 159.073C172.193 159.969 165.827 160.444 159.456 160.944L157.846 161.059C153.273 161.379 148.722 161.644 144.353 161.929L142.495 162.049C137.128 162.41 132.142 162.8 127.859 163.335C127.156 163.42 126.463 163.51 125.798 163.61C125.138 163.16 124.461 162.725 123.764 162.325C122.995 162.974 122.12 163.504 121.171 163.895C121.628 162.731 122.362 161.68 123.318 160.819C126.538 157.913 131.53 157.293 135.813 156.988C143.376 156.458 150.809 156.148 158.297 154.862C166.177 153.564 173.926 151.652 181.462 149.145C186.796 147.36 191.929 145.09 196.786 142.368C197.527 142.438 198.305 142.538 199.094 142.658C200.93 142.94 202.739 143.356 204.504 143.903C204.649 145.669 204.102 147.66 202.658 149.88Z" fill="#702010"/>
<path d="M155.93 172.033C159.593 176.398 162.306 181.388 163.917 186.723L162.435 187.068C160.839 181.836 158.152 176.948 154.529 172.683L155.93 172.033Z" fill="#CCB999"/>
<path d="M194.145 183.532C187.704 181.921 181.264 182.691 174.919 184.067L173.433 184.397C172.982 179.648 171.523 175.03 169.139 170.812C168.2 169.132 166.359 166.906 168.989 165.666C169.688 165.39 170.405 165.156 171.135 164.965C173.68 164.125 176.782 160.739 179.46 160.414C182.756 160.019 186.137 161.119 188.762 162.66C192.707 164.975 194.258 166.501 198.589 167.751C205.25 169.677 201.584 185.392 194.145 183.532Z" fill="#CCB999"/>
<path d="M214.305 121.146C213.924 115.499 211.154 110.702 205.803 107.481C200.355 104.205 192.256 105.791 188.746 111.068C185.525 115.934 187.012 122.601 192.943 124.862C195.025 125.657 197.403 125.632 199.588 125.267C199.903 125.181 200.238 125.181 200.554 125.267C200.863 125.435 201.115 125.681 201.278 125.978C201.869 126.796 202.669 127.465 203.606 127.924C204.543 128.383 205.587 128.618 206.646 128.608C210.011 128.543 214.525 124.397 214.305 121.146Z" fill="#6B6561"/>
<path d="M169.595 117C170.864 116.946 172.135 117.026 173.384 117.24C175.437 117.557 177.533 117.538 179.578 117.185C180.147 117.085 180.711 116.975 181.269 116.854C186.679 115.674 187.399 108.212 182.627 105.851C179.163 104.046 175.168 103.327 171.232 103.8C165.715 104.505 160.09 102.8 156.461 98.8535C155.977 98.3267 155.522 97.7775 155.098 97.208C154.497 96.3933 154.168 95.4308 154.153 94.442C154.052 89.0462 153.365 83.6737 152.103 78.4067C151.908 77.9208 151.764 77.4182 151.674 76.9062C150.16 70.9492 140.869 71.5995 139.291 77.1413C139.061 77.9466 138.942 78.7618 138.755 79.5821C138.642 80.1123 138.561 80.6375 138.481 81.1676C137.676 86.8438 138.453 92.6174 140.735 97.9332C141.054 98.6481 141.197 99.4207 141.154 100.194C139.953 116.15 132.976 131.253 121.364 143.033C117.237 147.16 112.616 150.536 107.646 153.712C102.675 156.888 97.4477 160.214 93.6906 164.655C85.0653 174.844 87.4699 187.953 98.9828 195.165C103.519 198.032 108.885 199.543 114.365 199.497C115.439 199.497 116.512 199.452 117.586 199.352C117.978 199.317 118.37 199.272 118.767 199.222C125.691 194.8 133.768 191.929 141.803 191.254L142.131 191.089L143.698 190.284L144.6 189.784C145.691 189.24 146.578 188.399 147.144 187.373C150.16 181.816 140.934 173.953 136.592 171.313C136.213 171.047 135.774 170.865 135.309 170.782C133.699 170.602 132.512 172.343 131.015 172.723C129.482 173.121 127.853 173.051 126.367 172.523C125.153 172.087 124.103 171.327 123.349 170.339C122.595 169.351 122.17 168.178 122.127 166.966C121.681 160.594 130.569 158.298 135.835 157.348C141.911 156.253 148.104 156.558 154.186 155.562C162.14 154.262 171.066 152.266 179.02 150.971C179.583 150.911 180.114 150.7 180.55 150.364C180.986 150.027 181.306 149.579 181.473 149.075C182.412 146.324 179.702 141.508 176.068 140.002C168.769 138.617 160.583 132.15 160.75 125.242C160.879 120.866 164.926 117.275 169.595 117Z" fill="#CCB999"/>
<path d="M157.395 183.757C157.395 183.852 157.347 183.947 157.32 184.037C156.274 187.303 152.796 188.408 149.564 189.038C147.777 189.394 145.313 189.464 143.693 190.304L142.12 191.119C141.147 191.009 140.238 190.608 139.529 189.977C138.82 189.346 138.349 188.519 138.186 187.618C137.994 186.81 137.736 186.018 137.413 185.247C135.883 181.596 132.974 178.91 128.959 177.245C128.332 176.962 127.785 176.546 127.361 176.031C126.937 175.516 126.648 174.916 126.517 174.279C126.374 173.736 126.323 173.175 126.367 172.618C126.233 174.314 133.543 171.618 134.166 171.248C134.788 170.877 136.227 169.562 137.101 169.602C138.255 169.652 137.96 170.687 138.964 171.393C141.648 173.278 145.254 174.394 148.206 175.894C151.427 177.585 154.11 180.04 156.794 182.371C157.043 182.553 157.242 182.788 157.374 183.056C157.449 183.284 157.456 183.526 157.395 183.757Z" fill="#CCB389"/>
<path d="M156.23 176.674C156.23 177.33 155.871 180.111 155.57 180.676C155.034 181.676 155.119 186.012 154.057 186.578C153.074 184.577 151.003 184.387 149.382 185.212C148.926 184.342 148.469 183.462 148.008 182.586L147.911 182.416C150.101 181.141 155.291 176.679 156.123 176.604C156.193 176.579 156.23 176.614 156.23 176.674Z" fill="#CCB389"/>
<path d="M52.3731 217.913C62.9306 215.107 72.3932 219.554 82.4999 220.099C86.4596 220.374 90.4358 219.834 94.1469 218.518C97.7964 217.161 101.264 215.412 104.479 213.306C108.266 207.421 113.453 202.426 119.642 198.707C119.711 198.462 119.776 198.206 119.83 197.961C120.032 197.019 120.106 196.056 120.05 195.095C119.583 189.234 112.063 191.554 107.512 192.665C102.214 193.965 96.428 190.664 94.163 186.012C91.898 181.361 92.628 175.814 94.7749 171.113C106.465 146.104 141.605 141.003 146.156 111.193C147.509 102.32 145.995 91.8412 140.88 83.8336C134.751 74.2604 127.21 73.02 115.885 74.8656C103.451 76.8859 90.7996 77.4805 78.2114 76.6362C70.0638 76.111 70.4073 70.8342 72.7904 65.0273C74.0839 61.8813 74.4865 57.4148 71.1802 55.9843C69.9436 55.5304 68.5833 55.4585 67.2996 55.7792C39.1373 60.8109 16.4121 98.4834 2.29607 119.49C-16.6648 147.626 -30.9089 178.292 -39.9447 210.431C-44.4157 226.411 -47.1208 243.672 -46.5572 260.402C-45.8488 281.584 -39.8642 301.916 -25.5496 317.741C0.401405 346.431 49.7109 354.053 86.214 359.755C92.1986 360.685 87.4378 353.388 86.6005 350.787C84.9313 345.615 83.4928 340.384 82.1027 335.142C79.419 325.009 76.9984 314.8 73.7404 304.807C66.8649 283.7 61.3043 255.495 45.3688 238.705C45.2897 238.628 45.2162 238.546 45.1487 238.46C37.3446 230.007 41.1823 220.889 52.3731 217.913ZM105.214 100.744C109.031 94.7772 114.011 88.9653 121.021 86.5995C123.324 85.8242 126.013 85.4841 128.127 86.6345C130.242 87.7849 131.187 89.9656 131.885 92.0813C134.429 99.7838 134.981 108.642 131.885 116.279C129.684 121.676 125.637 126.193 121.15 130.164C120.765 130.218 120.39 130.319 120.033 130.464C113.33 133.34 104.468 131.189 100.808 124.962C96.3529 117.43 100.974 107.381 105.225 100.744H105.214Z" fill="#6B6561"/>
<path d="M87.9959 159.869C85.3122 172.458 76.1878 184.507 62.1523 187.443C56.5112 188.623 53.0278 183.342 54.2194 179.485C54.3928 178.879 54.6939 178.311 55.105 177.815C55.9691 176.819 57.1846 176.142 58.5347 175.904C67.0365 174.123 72.0496 167.796 74.4917 160.544C75.1409 158.604 75.6201 156.619 75.9248 154.607C76.5119 151.002 76.7025 147.35 76.4937 143.708C76.4615 143.243 76.4347 142.773 76.381 142.308C75.9281 138.588 75.1563 134.909 74.0731 131.304C74.0326 131.08 74.0751 130.85 74.1934 130.652C74.3118 130.454 74.4991 130.299 74.7244 130.213C74.9498 130.126 75.1999 130.114 75.4336 130.178C75.6674 130.242 75.8709 130.378 76.0107 130.564C77.7282 133.39 79.5477 136.166 81.4209 138.942C85.6021 145.154 89.6168 152.291 87.9959 159.869Z" fill="#4F4B48"/>
<path d="M175.005 189.884C174.601 192.185 173.574 194.352 172.021 196.181C171.774 196.468 171.506 196.741 171.221 196.996C167.432 200.442 162.156 200.602 157.932 197.731C154.024 195.075 152.446 190.894 150.3 187.058C148.689 184.192 146.816 181.401 144.315 179.135C143.133 178.091 141.808 177.197 140.375 176.474C139.125 175.809 137.525 174.939 137.198 173.513C137.061 172.905 136.996 172.284 137.005 171.663C137.011 171.117 137.07 170.573 137.182 170.037C137.794 166.991 140.01 164.09 143.623 163.74C150.976 163.025 154.942 168.637 157.776 174.003C159.322 176.931 160.87 179.859 162.419 182.786C162.329 181.844 162.16 180.909 161.914 179.99C160.926 176.291 158.83 172.929 155.871 170.297C151.421 166.261 155.334 160.444 160.063 160.014C160.944 159.927 161.836 160.041 162.66 160.344C163.491 160.651 164.245 161.112 164.877 161.699C169.995 166.269 173.453 172.215 174.769 178.705C175.44 182.071 175.778 186.162 175.005 189.884Z" fill="#FF8B73"/>
<path d="M273.308 119.12C273.114 115.279 269.116 112.368 265.047 113.503C255.762 116.084 247.781 122.401 244.115 130.844C242.816 133.845 243.251 137.296 246.568 139.032C249.294 140.462 254.044 139.777 255.354 136.746C257.254 132.355 260.34 128.839 264.57 126.643C268.445 127.953 273.64 126.073 273.388 121.106L273.308 119.12Z" fill="#CCB999"/>
<path d="M277.827 133.49C276.99 132.202 275.639 131.275 274.07 130.914C272.505 130.632 270.883 130.858 269.475 131.554L264.108 133.9C262.788 134.48 261.682 136.116 261.344 137.401C260.966 138.857 261.213 140.393 262.031 141.683C262.868 142.971 264.219 143.897 265.788 144.259C267.353 144.54 268.974 144.314 270.382 143.618L275.75 141.273C277.07 140.692 278.176 139.057 278.514 137.771C278.891 136.315 278.645 134.779 277.827 133.49Z" fill="#CCB999"/>
<path d="M100.829 26.3845C101.183 29.1454 101.425 33.752 100.872 36.3878C99.1707 44.5906 98.151 53.3935 97.0829 61.7062C96.5461 65.7076 91.5062 62.9166 87.3573 63.1617C84.3409 63.3368 80.8736 64.052 81.5874 61.3161C83.0473 55.7242 83.7344 49.8823 86.0208 44.5956C88.9246 37.8683 93.1379 31.4762 98.838 26.4795C99.0706 26.2354 99.358 26.042 99.68 25.9132C100.002 25.7844 100.35 25.7233 100.7 25.7343C100.761 25.9477 100.804 26.1651 100.829 26.3845Z" fill="#4F4B48"/>
<path d="M250.518 149.185C256.009 152.156 260.367 156.688 263.647 161.689C266.926 166.691 269.186 172.163 271.048 177.655C272.911 183.146 274.183 188.718 275.798 194.12C276.598 196.821 277.441 199.487 278.428 202.083C279.399 204.654 280.528 207.17 281.81 209.62C283.089 212.017 284.577 214.312 286.259 216.483C287.966 218.612 289.893 220.581 292.013 222.359C296.32 225.932 301.377 228.63 306.864 230.282C312.411 231.909 318.265 232.421 324.04 231.783C329.88 231.143 335.517 229.39 340.598 226.631C340.867 226.484 341.187 226.44 341.491 226.508C341.795 226.576 342.058 226.751 342.226 226.996C342.394 227.241 342.454 227.538 342.392 227.823C342.331 228.109 342.153 228.361 341.897 228.527C336.647 231.865 330.682 234.102 324.415 235.085C318.147 236.067 311.725 235.772 305.592 234.218C299.386 232.62 293.618 229.805 288.674 225.961C283.71 222.106 279.722 217.276 276.995 211.816C274.193 206.474 272.513 200.812 271.048 195.27C269.583 189.729 268.418 184.142 266.883 178.765C265.348 173.388 263.448 168.111 260.625 163.315C257.802 158.518 254.071 154.182 249.235 151.106C248.966 150.947 248.775 150.694 248.705 150.404C248.635 150.113 248.692 149.809 248.862 149.558C249.033 149.306 249.304 149.129 249.616 149.063C249.927 148.998 250.254 149.051 250.524 149.21L250.518 149.185Z" fill="#233940"/>
<path d="M261.162 145.104L259.476 143.698C259.201 143.485 259.024 143.181 258.984 142.849C258.944 142.517 259.044 142.184 259.262 141.919C259.48 141.655 259.8 141.479 260.154 141.429C260.508 141.379 260.869 141.46 261.162 141.653L261.349 141.773C265.238 144.21 268.941 146.894 272.433 149.805C275.939 152.719 279.233 155.847 282.293 159.169C285.254 162.568 287.924 166.179 290.279 169.967C292.683 173.702 294.79 177.595 296.586 181.616C296.714 181.879 296.729 182.178 296.628 182.451C296.527 182.725 296.318 182.951 296.043 183.085C295.768 183.219 295.449 183.25 295.151 183.171C294.852 183.092 294.598 182.91 294.439 182.661C291.943 179.08 289.361 175.584 286.651 172.193C283.94 168.802 281.021 165.611 278.144 162.37C275.267 159.129 272.395 155.867 269.288 152.796C266.18 149.725 262.97 146.719 259.627 143.793L261.51 141.883L262.917 143.533C263.14 143.75 263.262 144.041 263.256 144.342C263.249 144.642 263.115 144.928 262.882 145.136C262.649 145.345 262.337 145.458 262.014 145.452C261.692 145.446 261.385 145.321 261.162 145.104Z" fill="#233940"/>
<path d="M281.557 163.405C281.954 161.984 282.145 160.521 282.126 159.053C282.126 158.348 282.035 157.553 281.981 156.768L281.793 154.437C281.52 151.331 281.16 148.235 280.682 145.159C279.783 139.03 278.238 132.999 276.072 127.153C274.97 124.25 273.683 121.41 272.218 118.65C270.807 115.925 269.115 113.334 267.167 110.912C266.211 109.734 265.16 108.626 264.022 107.596C262.89 106.596 261.634 105.596 260.33 104.645C259.025 103.695 257.673 102.68 256.352 101.579C254.952 100.456 253.692 99.1891 252.595 97.8031C251.382 96.2665 250.588 94.4778 250.282 92.5914C250.108 91.4953 250.222 90.3761 250.615 89.3303C250.829 88.7648 251.129 88.2309 251.506 87.7448C251.699 87.5097 251.924 87.2996 252.144 87.0796C252.352 86.8643 252.589 86.6745 252.847 86.5144C253.094 86.3493 253.341 86.1793 253.594 86.0142L254.366 85.6641C254.862 85.4529 255.378 85.2855 255.907 85.1639C256.402 85.0405 256.906 84.9486 257.415 84.8888C257.922 84.8091 258.436 84.7673 258.95 84.7638C260.915 84.7732 262.862 85.1121 264.699 85.7641C266.375 86.3698 268.013 87.0645 269.604 87.8448L271.907 89.0902C272.68 89.4954 273.383 89.9955 274.129 90.4407C277.004 92.3112 279.708 94.4008 282.212 96.6878C292.142 105.791 299.226 116.644 308.957 124.757C313.819 128.878 319.064 132.589 324.63 135.846C330.227 139.105 336.08 141.968 342.138 144.409C354.379 149.257 367.214 152.683 380.353 154.607C393.514 156.608 406.906 157.388 420.318 157.553C433.731 157.718 447.187 157.313 460.654 156.913C460.964 156.913 461.263 157.025 461.487 157.224C461.711 157.424 461.845 157.697 461.859 157.986C461.874 158.274 461.768 158.557 461.565 158.776C461.361 158.994 461.076 159.131 460.767 159.158C447.321 159.944 433.844 160.734 420.308 160.814C406.771 160.894 393.187 160.399 379.693 158.628C366.126 156.922 352.846 153.616 340.174 148.79C333.808 146.369 327.666 143.463 321.812 140.102C315.927 136.729 310.41 132.827 305.34 128.453L301.626 125.077L298.105 121.521C295.85 119.095 293.73 116.609 291.637 114.139C287.467 109.192 283.382 104.295 278.782 99.9738C276.51 97.8257 274.05 95.8567 271.429 94.0869C270.764 93.6768 270.13 93.2116 269.438 92.8365L267.388 91.6911C266.006 90.9944 264.585 90.3683 263.131 89.8155C261.821 89.3229 260.427 89.0519 259.015 89.0152C258.358 89.0294 257.705 89.1082 257.066 89.2503C256.777 89.3103 256.494 89.3974 256.223 89.5104L255.853 89.6604L255.563 89.8505C255.464 89.8964 255.378 89.9632 255.311 90.0456C255.247 90.1156 255.161 90.1756 255.096 90.2456C254.982 90.4004 254.89 90.5686 254.823 90.7458C254.652 91.186 254.606 91.6596 254.688 92.1212C254.883 93.3522 255.391 94.5218 256.17 95.5324C257.057 96.6855 258.077 97.7439 259.213 98.6884C260.383 99.6888 261.661 100.689 262.97 101.689C264.28 102.69 265.606 103.755 266.872 104.945C268.128 106.127 269.285 107.396 270.334 108.742C272.376 111.384 274.137 114.205 275.594 117.165C277.056 120.069 278.33 123.052 279.41 126.097C281.485 132.181 282.902 138.443 283.64 144.789C284.037 147.94 284.305 151.096 284.488 154.252L284.611 156.618C284.611 157.413 284.697 158.173 284.686 159.038C284.66 160.713 284.392 162.377 283.892 163.985C283.81 164.274 283.609 164.52 283.332 164.67C283.055 164.82 282.726 164.862 282.416 164.785C282.106 164.709 281.842 164.521 281.681 164.263C281.52 164.005 281.475 163.698 281.557 163.41V163.405Z" fill="#233940"/>
<path d="M273.34 83.5835C272.223 82.8915 271.302 81.958 270.656 80.8626C270.042 79.8516 269.561 78.7751 269.223 77.6565C268.517 75.4231 268.334 73.0743 268.687 70.7692C268.883 69.5011 269.352 68.2829 270.066 67.1881C270.483 66.5789 271.005 66.0381 271.612 65.5875C272.25 65.1263 272.98 64.7864 273.759 64.5872C274.509 64.393 275.288 64.3119 276.067 64.3471C276.432 64.3471 276.786 64.4171 277.14 64.4571C277.518 64.5193 277.891 64.6062 278.256 64.7172C279.605 65.1646 280.836 65.8738 281.869 66.7979C282.765 67.5886 283.594 68.4432 284.348 69.3538C285.062 70.184 285.771 71.0193 286.468 71.8546C287.859 73.5452 289.233 75.2457 290.542 76.9863C293.161 80.4875 295.695 83.9886 298.056 87.6398C302.743 94.9126 306.896 102.472 310.487 110.267C314.113 118.036 317.162 126.027 319.612 134.185C319.698 134.465 319.665 134.765 319.519 135.023C319.374 135.28 319.127 135.475 318.83 135.566C318.533 135.657 318.21 135.638 317.929 135.512C317.647 135.386 317.429 135.163 317.32 134.891C315.663 130.979 313.94 127.111 312.151 123.287C310.332 119.475 308.458 115.694 306.456 111.973C304.454 108.252 302.35 104.585 300.15 100.969L293.424 90.1607C291.149 86.5845 288.878 83.0083 286.447 79.5422C285.229 77.8066 283.989 76.086 282.69 74.3904C281.504 72.7394 280.215 71.1545 278.831 69.6439C278.276 69.0681 277.6 68.605 276.845 68.2834C276.67 68.2204 276.491 68.1686 276.308 68.1284L275.718 68.0333C275.371 67.9952 275.02 68.007 274.676 68.0683C274.021 68.1946 273.443 68.5533 273.066 69.0687C272.57 69.752 272.225 70.5205 272.052 71.3294C271.632 73.1779 271.632 75.0878 272.052 76.9363C272.247 77.8614 272.561 78.7615 272.986 79.6172C273.345 80.4061 273.896 81.1064 274.596 81.6629L274.666 81.7179C274.899 81.8985 275.05 82.1546 275.089 82.4349C275.129 82.7151 275.053 82.9988 274.877 83.2291C274.701 83.4593 274.438 83.6192 274.141 83.6765C273.844 83.7339 273.535 83.6846 273.276 83.5385L273.34 83.5835Z" fill="#233940"/>
<path d="M157.293 377.481C155.399 372.221 154.101 366.792 153.418 361.281C152.749 355.728 152.738 350.124 153.386 344.57C154.754 333.456 159.091 322.453 166.525 313.42C167.464 312.304 168.377 311.164 169.418 310.134C170.459 309.103 171.447 308.023 172.568 307.073C173.69 306.122 174.715 305.072 175.918 304.212C177.12 303.351 178.215 302.381 179.455 301.571C189.081 294.829 200.126 290.057 211.868 287.566C217.69 286.327 223.652 285.752 229.623 285.856C229.943 285.85 230.253 285.964 230.483 286.171C230.714 286.378 230.846 286.662 230.852 286.961C230.858 287.259 230.736 287.548 230.514 287.763C230.291 287.977 229.986 288.101 229.666 288.106C218.18 288.687 206.973 291.803 196.839 296.639C186.728 301.437 177.833 308.191 170.749 316.451C167.278 320.564 164.408 325.088 162.215 329.905C160.036 334.772 158.509 339.87 157.669 345.085C156.793 350.342 156.541 355.672 156.917 360.98C157.267 366.332 158.165 371.639 159.601 376.831C159.691 377.116 159.657 377.423 159.504 377.684C159.352 377.945 159.094 378.139 158.788 378.224C158.482 378.308 158.152 378.275 157.872 378.133C157.592 377.991 157.384 377.751 157.293 377.466V377.481Z" fill="#233940"/>
<path d="M111.258 250.429C120.652 253.016 130.479 253.959 140.241 253.21C145.1 252.882 149.918 252.16 154.642 251.054C159.348 249.949 163.925 248.412 168.307 246.468C172.735 244.539 177.036 242.367 181.189 239.965C185.334 237.624 189.293 235.006 193.034 232.133C200.35 226.351 206.227 219.048 210.746 211.126C213.005 207.135 214.965 203.004 216.613 198.762C218.251 194.499 219.585 190.139 220.606 185.712C221.68 181.246 222.56 176.684 223.644 172.103C224.721 167.504 226.065 162.962 227.67 158.498C229.265 154.037 231.094 149.657 233.155 145.359C235.216 141.061 237.517 136.893 240.057 132.855C245.08 124.735 251.018 117.138 257.77 110.192C257.982 109.981 258.275 109.854 258.586 109.838C258.896 109.822 259.202 109.919 259.438 110.108C259.674 110.297 259.823 110.564 259.853 110.853C259.883 111.141 259.792 111.43 259.6 111.658C247.056 125.833 237.411 142.208 231.824 159.729C231.486 160.824 231.115 161.914 230.804 163.02L229.881 166.331C229.344 168.557 228.77 170.767 228.303 173.018C227.348 177.52 226.564 182.091 225.576 186.698C225.083 188.998 224.535 191.309 223.891 193.615C223.574 194.765 223.225 195.921 222.818 197.046C222.41 198.172 222.055 199.312 221.615 200.427C219.94 204.927 217.876 209.293 215.443 213.482C210.616 221.973 204.052 229.502 196.121 235.644C192.132 238.593 187.918 241.267 183.513 243.647C179.178 246.077 174.679 248.246 170.046 250.139C165.384 252.065 160.53 253.559 155.554 254.6C150.593 255.63 145.545 256.256 140.467 256.471C130.317 256.911 120.167 255.585 110.539 252.56C110.235 252.469 109.982 252.269 109.836 252.005C109.69 251.74 109.663 251.432 109.76 251.149C109.858 250.866 110.072 250.63 110.356 250.494C110.64 250.358 110.97 250.333 111.274 250.424L111.258 250.429Z" fill="#233940"/>
<path d="M264.35 181.511C264.016 191.711 262.623 201.857 260.19 211.806C258.873 216.762 257.225 221.636 255.257 226.401C253.365 231.183 251.2 235.868 248.774 240.435C248.633 240.681 248.4 240.868 248.119 240.964C247.839 241.059 247.531 241.054 247.254 240.951C246.977 240.847 246.75 240.652 246.618 240.403C246.485 240.154 246.456 239.868 246.535 239.6C248.146 234.784 249.665 229.982 251.071 225.15C252.477 220.319 253.658 215.447 254.994 210.616C257.796 200.977 260.029 191.194 261.972 181.286C262.028 181.009 262.194 180.762 262.437 180.594C262.68 180.425 262.981 180.348 263.282 180.377C263.583 180.406 263.861 180.539 264.062 180.75C264.263 180.961 264.371 181.234 264.366 181.516L264.35 181.511Z" fill="#233940"/>
<path d="M94.0339 357.174C93.7655 354.557 93.5151 351.941 93.2825 349.327L92.2681 341.514L91.0175 333.746L89.4878 326.024C88.8706 323.468 88.3124 320.907 87.7219 318.351L85.6931 310.739L83.3905 303.201C82.521 300.717 81.6766 298.228 80.8572 295.734C79.9197 293.273 79.0144 290.802 78.1413 288.321C77.1483 285.881 76.2144 283.42 75.2644 280.959L72.1514 273.676L68.7968 266.479C64.1248 256.938 58.8336 247.671 52.9525 238.73C52.7839 238.482 52.7261 238.182 52.7913 237.895C52.8565 237.608 53.0397 237.355 53.3017 237.192C53.5636 237.029 53.8837 236.968 54.1935 237.021C54.5033 237.075 54.7783 237.239 54.9599 237.479C61.6492 246.107 67.6037 255.21 72.7686 264.704L76.5257 271.886L79.993 279.198C81.0665 281.669 82.1399 284.145 83.1597 286.636C84.1795 289.127 85.0437 291.672 85.94 294.203C86.8364 296.734 87.5502 299.315 88.3553 301.881L90.4486 309.658L92.252 317.471C92.7511 320.097 93.2771 322.713 93.7494 325.339L94.9034 333.251L95.7622 341.189L96.2667 349.147C96.3383 351.814 96.3955 354.468 96.4385 357.109C96.4444 357.399 96.3295 357.68 96.1179 357.893C95.9062 358.105 95.6143 358.233 95.3036 358.249C94.9928 358.265 94.6874 358.169 94.4516 357.979C94.2159 357.79 94.0681 357.523 94.0393 357.234L94.0339 357.174Z" fill="#233940"/>
<path d="M131.884 167.561C136.065 169.746 139.812 172.583 142.962 175.949C146.121 179.373 148.649 183.26 150.444 187.453L151.083 189.043L151.62 190.664L152.554 193.795C153.059 195.702 153.797 197.548 154.754 199.297C155.51 200.712 156.818 201.803 158.41 202.348C160.032 202.758 161.757 202.624 163.283 201.968C164.099 201.635 164.857 201.189 165.532 200.647C166.268 200.082 166.932 199.441 167.513 198.737C168.756 197.207 169.766 195.524 170.513 193.735C172.121 190.04 172.841 186.063 172.622 182.081C172.613 181.579 172.574 181.078 172.504 180.581C172.445 180.08 172.408 179.58 172.332 179.08L172.037 177.58L171.892 176.834L171.683 176.104L171.264 174.634L170.728 173.193C170.37 172.232 169.96 171.289 169.498 170.367C167.609 166.659 164.9 163.364 161.549 160.699C161.317 160.511 161.17 160.247 161.139 159.961C161.108 159.676 161.196 159.39 161.384 159.162C161.571 158.935 161.846 158.783 162.15 158.738C162.454 158.692 162.765 158.757 163.02 158.918C167.007 161.511 170.31 164.912 172.681 168.867C175.07 172.852 176.552 177.253 177.034 181.796C177.564 186.412 176.967 191.08 175.29 195.451C174.485 197.717 173.298 199.849 171.774 201.768C170.151 203.879 167.941 205.537 165.382 206.564C162.652 207.679 159.575 207.806 156.751 206.919C155.323 206.436 154.021 205.674 152.935 204.684C151.924 203.751 151.079 202.674 150.434 201.493C149.359 199.384 148.567 197.16 148.077 194.87L147.305 191.759L146.881 190.289L146.397 188.833C143.529 180.964 138 174.174 130.639 169.482C130.381 169.32 130.201 169.072 130.135 168.789C130.07 168.506 130.124 168.211 130.287 167.964C130.45 167.718 130.709 167.54 131.01 167.468C131.311 167.395 131.63 167.434 131.9 167.576L131.884 167.561Z" fill="#233940"/>
<path d="M147.573 164.38C152.729 167.031 157.132 170.79 160.417 175.344C161.985 177.672 163.183 180.199 163.976 182.846C164.838 185.443 165.336 188.133 165.457 190.849C165.465 191.118 165.37 191.381 165.189 191.591C165.009 191.801 164.754 191.945 164.471 191.997C164.187 192.049 163.893 192.006 163.641 191.876C163.388 191.745 163.193 191.536 163.09 191.284C162.166 188.917 161.09 186.604 159.87 184.357C158.667 182.131 157.186 180.095 155.86 177.99C153.19 173.665 149.916 169.689 146.124 166.166C145.914 165.974 145.786 165.718 145.763 165.445C145.74 165.172 145.824 164.901 146 164.682C146.176 164.462 146.431 164.31 146.719 164.252C147.006 164.195 147.306 164.237 147.563 164.37L147.573 164.38Z" fill="#233940"/>
<path d="M169.863 165.11C170.751 163.571 171.981 162.225 173.471 161.163C174.962 160.102 176.677 159.348 178.505 158.953C180.385 158.539 182.341 158.527 184.226 158.918C186.025 159.304 187.758 159.916 189.379 160.739C192.519 162.24 195.176 164.1 197.897 165.115C200.57 166.141 203.487 166.486 206.35 166.116C209.101 165.786 211.678 164.682 213.736 162.95C214.742 162.073 215.603 161.061 216.291 159.949C216.965 158.824 217.429 157.602 217.665 156.333C217.905 155.083 217.88 153.802 217.59 152.561C217.262 151.261 216.705 150.021 215.942 148.89C214.38 146.524 212.12 144.359 209.759 142.208L212.485 141.208C212.127 143.655 211.739 146.102 211.321 148.55C211.287 148.844 211.13 149.114 210.884 149.302C210.638 149.489 210.323 149.579 210.007 149.551C209.691 149.524 209.399 149.381 209.195 149.154C208.99 148.928 208.89 148.635 208.916 148.34C208.995 145.866 209.097 143.393 209.222 140.922C209.24 140.648 209.338 140.383 209.507 140.157C209.675 139.932 209.907 139.753 210.176 139.642C210.446 139.53 210.744 139.49 211.036 139.525C211.329 139.561 211.605 139.67 211.836 139.842L211.943 139.927C214.509 141.928 217.225 143.958 219.366 146.759C220.484 148.189 221.342 149.781 221.905 151.471C222.481 153.232 222.663 155.084 222.442 156.913C222.008 160.555 220.239 163.947 217.434 166.516C214.595 169.048 210.918 170.608 207.005 170.942C203.227 171.301 199.415 170.698 195.975 169.197C192.605 167.696 189.991 165.651 187.345 164.125C184.699 162.6 182.01 161.664 179.176 162.089C177.728 162.281 176.339 162.749 175.095 163.464C173.851 164.179 172.779 165.126 171.946 166.246C171.784 166.503 171.52 166.69 171.21 166.766C170.901 166.841 170.572 166.799 170.295 166.648C170.019 166.498 169.819 166.251 169.738 165.963C169.657 165.674 169.702 165.368 169.863 165.11Z" fill="#233940"/>
<path d="M196.013 170.112C195.875 167.194 195.103 164.332 193.743 161.699C193.059 160.457 192.29 159.258 191.44 158.108C190.673 156.909 189.773 155.788 188.757 154.762L192.374 153.262C192.202 154.332 192.009 155.402 191.789 156.468C191.569 157.533 191.344 158.603 191.07 159.669C191.003 159.927 190.842 160.155 190.615 160.315C190.387 160.475 190.108 160.556 189.823 160.545C189.538 160.534 189.267 160.431 189.055 160.254C188.843 160.076 188.703 159.836 188.66 159.574C188.483 158.488 188.349 157.408 188.236 156.328C188.123 155.247 188.021 154.167 187.951 153.087C187.926 152.723 188.011 152.36 188.196 152.039C188.381 151.718 188.659 151.451 188.999 151.27C189.338 151.09 189.726 151.001 190.116 151.015C190.507 151.03 190.886 151.146 191.209 151.351L191.574 151.581C193.191 152.582 194.629 153.812 195.836 155.227C196.971 156.689 197.828 158.321 198.369 160.054C199.539 163.43 199.556 167.062 198.418 170.447C198.325 170.696 198.143 170.908 197.902 171.046C197.662 171.184 197.377 171.24 197.097 171.204C196.817 171.169 196.559 171.044 196.366 170.852C196.173 170.659 196.058 170.41 196.04 170.147L196.013 170.112Z" fill="#233940"/>
<path d="M205.696 123.777C204.176 125.423 202.088 126.525 199.792 126.893C197.516 127.277 195.17 127.023 193.05 126.163C191.966 125.719 190.971 125.104 190.109 124.347C189.261 123.578 188.548 122.69 187.994 121.716C186.936 119.77 186.482 117.587 186.685 115.414C186.772 114.329 187.025 113.261 187.436 112.243C187.839 111.2 188.413 110.221 189.137 109.342C190.596 107.596 192.539 106.255 194.757 105.466C196.944 104.683 199.298 104.395 201.627 104.625C203.99 104.857 206.25 105.649 208.191 106.926C210.099 108.173 211.695 109.789 212.872 111.663C214.044 113.503 214.846 115.527 215.239 117.635C216.017 121.896 215.051 126.183 213.156 129.894C211.23 133.558 208.515 136.813 205.18 139.457C201.982 142.003 198.5 144.224 194.795 146.079C187.594 149.841 179.931 152.777 171.973 154.822C164.009 156.917 155.773 157.979 147.498 157.978C143.349 157.978 139.404 157.618 135.69 158.048C131.976 158.478 128.471 159.654 126.222 162.119C125.103 163.278 124.395 164.729 124.193 166.276C124.034 167.796 124.47 169.319 125.422 170.562C125.868 171.16 126.468 171.644 127.167 171.97C127.865 172.295 128.64 172.453 129.421 172.428C130.203 172.439 130.975 172.26 131.661 171.91C132.347 171.559 132.923 171.048 133.334 170.427C133.495 170.195 133.743 170.026 134.029 169.953C134.316 169.881 134.621 169.909 134.887 170.033C135.153 170.156 135.36 170.367 135.47 170.625C135.579 170.882 135.583 171.168 135.48 171.428C134.933 172.484 134.068 173.368 132.99 173.973C131.943 174.554 130.765 174.897 129.55 174.974C128.313 175.068 127.07 174.876 125.932 174.414C124.8 173.939 123.803 173.223 123.023 172.323C121.497 170.561 120.731 168.331 120.876 166.071C121.046 163.857 121.948 161.746 123.458 160.029C124.903 158.358 126.739 157.017 128.825 156.107C130.824 155.235 132.951 154.645 135.137 154.357C139.431 153.747 143.558 154.012 147.444 153.892C163.138 153.502 178.44 148.705 192.197 141.738C195.595 140.058 198.812 138.078 201.804 135.826C204.679 133.66 207.043 130.964 208.75 127.908C210.36 124.907 211.176 121.516 210.666 118.34C210.188 115.13 208.395 112.217 205.663 110.212C204.337 109.268 202.771 108.659 201.117 108.447C199.433 108.227 197.718 108.382 196.11 108.897C194.525 109.401 193.118 110.298 192.041 111.493C191.515 112.086 191.093 112.752 190.791 113.468C190.464 114.196 190.252 114.965 190.163 115.749C189.947 117.328 190.2 118.931 190.893 120.386C191.251 121.085 191.722 121.729 192.288 122.296C192.869 122.851 193.548 123.31 194.295 123.652C197.317 125.067 201.536 124.652 203.86 122.326C204.074 122.103 204.373 121.969 204.693 121.952C205.014 121.935 205.328 122.037 205.567 122.236C205.806 122.435 205.951 122.715 205.969 123.013C205.987 123.311 205.877 123.604 205.663 123.827L205.696 123.777Z" fill="#233940"/>
<path d="M129.356 103.98C126.823 104.15 124.341 104.739 122.03 105.721C119.815 106.651 117.811 107.966 116.126 109.597C114.386 111.151 112.906 112.94 111.735 114.904C110.569 117.005 109.813 119.283 109.503 121.631C109.471 121.902 109.335 122.154 109.121 122.34C108.906 122.525 108.627 122.633 108.335 122.643C108.042 122.652 107.756 122.564 107.528 122.393C107.299 122.221 107.145 121.98 107.093 121.711C106.526 118.928 106.711 116.058 107.629 113.358C108.079 111.975 108.699 110.644 109.476 109.392C110.251 108.112 111.238 106.954 112.401 105.961C114.743 104.032 117.537 102.639 120.559 101.895C123.488 101.149 126.569 101.09 129.528 101.724C129.813 101.785 130.065 101.938 130.238 102.158C130.411 102.377 130.493 102.647 130.469 102.918C130.446 103.189 130.318 103.443 130.11 103.634C129.901 103.824 129.626 103.939 129.335 103.955L129.356 103.98Z" fill="#233940"/>
<path d="M150.445 88.165C149.06 87.4943 147.949 86.4191 147.283 85.1039C146.551 83.7174 146.274 82.16 146.489 80.6275C146.857 79.1577 147.71 77.8324 148.927 76.8375C150.145 75.8426 151.667 75.2282 153.279 75.0806C153.532 75.0696 153.783 75.1302 154 75.2544C154.216 75.3786 154.386 75.5607 154.49 75.7769C154.593 75.993 154.624 76.2331 154.578 76.4659C154.532 76.6986 154.413 76.9131 154.234 77.0813L154.116 77.1863C153.41 77.8276 152.835 78.5835 152.42 79.4171C152.136 80.1252 151.919 80.8548 151.77 81.5978C151.493 82.3219 151.374 83.0908 151.422 83.8585C151.479 84.7749 151.712 85.6743 152.109 86.5144L152.168 86.6445C152.267 86.8631 152.292 87.1048 152.24 87.3371C152.187 87.5694 152.06 87.7814 151.875 87.9445C151.69 88.1077 151.456 88.2143 151.204 88.2501C150.953 88.286 150.695 88.2493 150.466 88.145L150.445 88.165Z" fill="#233940"/>
<path d="M-47.9959 240.32C-47.1447 229.203 -45.2117 218.181 -42.2207 207.39C-39.1932 196.609 -35.3385 186.045 -30.6863 175.779C-29.4894 173.228 -28.3676 170.647 -27.1117 168.121L-23.3062 160.569L-19.2593 153.107C-17.8799 150.641 -16.4414 148.21 -15.0352 145.759C-9.29217 136.016 -3.14123 126.498 3.21368 117.13C16.0201 98.4734 29.4062 80.0073 45.3149 63.2867C53.223 54.872 61.9163 47.1275 71.2927 40.1441C80.6814 33.1313 90.9557 27.2154 101.886 22.5282H101.919C102.206 22.4074 102.524 22.3613 102.837 22.3948C103.151 22.4283 103.448 22.5401 103.699 22.7185C103.95 22.8969 104.145 23.1351 104.262 23.408C104.379 23.681 104.415 23.9784 104.366 24.2688L101.076 43.4152L97.7429 62.5765C97.6891 62.8659 97.516 63.1243 97.2605 63.2964C97.0051 63.4685 96.6876 63.5408 96.3757 63.4977C96.0639 63.4546 95.7826 63.2996 95.5917 63.0658C95.4009 62.832 95.3157 62.5379 95.3544 62.2464L98.1025 43.025L100.926 23.8137L103.405 25.5442C92.8652 30.3147 82.9911 36.2693 74.0032 43.2751C72.8868 44.1554 71.7167 44.9757 70.6379 45.906L67.3746 48.6469L65.7644 50.0173L64.181 51.4328L61.0358 54.2988C58.9479 56.2144 56.9673 58.2401 54.9278 60.2057C52.8882 62.1714 50.9989 64.2771 49.0667 66.3378C41.4075 74.6505 34.3441 83.4484 27.5008 92.4064C20.6575 101.364 14.0825 110.537 7.5773 119.75C-5.3472 138.192 -17.4022 157.193 -26.9077 177.295C-31.693 187.325 -35.7176 197.655 -38.952 208.21C-42.2114 218.764 -44.4354 229.572 -45.5967 240.5C-45.623 240.797 -45.7747 241.072 -46.0183 241.264C-46.2619 241.456 -46.5774 241.55 -46.8956 241.526C-47.2137 241.501 -47.5084 241.36 -47.7148 241.133C-47.9211 240.906 -48.0222 240.612 -47.9959 240.315V240.32Z" fill="#233940"/>
<path d="M54.3157 183.221C51.5063 178.251 48.4102 173.425 45.041 168.767C41.724 164.045 38.2782 159.348 35.2135 154.357C32.0398 149.349 29.5754 143.979 27.8817 138.382C26.2327 132.694 25.6534 126.783 26.1695 120.911C26.1695 120.175 26.3145 119.45 26.3896 118.72C26.4647 117.99 26.5399 117.26 26.6848 116.539C26.9585 115.099 27.2215 113.643 27.5865 112.228C28.2884 109.375 29.1957 106.569 30.3024 103.83C32.5392 98.3607 35.5017 93.1737 39.1209 88.3899C42.7348 83.578 47.0096 79.2279 51.836 75.4506C53.0007 74.4753 54.3479 73.62 55.6522 72.7347C56.3032 72.2915 56.9825 71.8856 57.6864 71.5193L59.7636 70.369L61.9105 69.3686C62.6404 69.0535 63.3436 68.6884 64.1004 68.4433C65.5978 67.9432 67.0631 67.313 68.6035 66.9428C74.6509 65.2061 80.933 64.2815 87.2603 64.1969C93.5216 64.1113 99.7751 64.6411 105.917 65.7774C112.079 66.8415 118.092 68.5547 123.839 70.8841C129.704 73.235 135.027 76.6217 139.511 80.8574C143.977 85.2411 147.093 90.6643 148.534 96.5577C149.885 102.366 149.815 108.384 148.33 114.163C146.974 119.913 144.356 125.339 140.638 130.099C138.771 132.436 136.682 134.612 134.396 136.601C132.107 138.556 129.667 140.353 127.097 141.978C126.837 142.13 126.525 142.184 126.223 142.13C125.922 142.075 125.654 141.916 125.475 141.684C125.295 141.452 125.217 141.166 125.256 140.882C125.295 140.598 125.448 140.339 125.685 140.157H125.717C128.119 138.527 130.39 136.737 132.512 134.8C134.597 132.858 136.49 130.746 138.169 128.488C141.488 123.964 143.789 118.859 144.932 113.483C145.518 110.822 145.811 108.112 145.807 105.396C145.791 102.706 145.431 100.028 144.734 97.4179C143.332 92.2357 140.461 87.5003 136.42 83.7084C132.235 79.9644 127.327 76.9942 121.955 74.9555C116.507 72.8625 110.823 71.3524 105.01 70.454C99.2035 69.4995 93.311 69.074 87.416 69.1836C85.9561 69.2586 84.4854 69.3036 83.0309 69.4236L80.8517 69.6437L79.7783 69.7538L78.7048 69.9238C77.2664 70.1389 75.8279 70.3339 74.411 70.6691C73.7078 70.8241 72.994 70.9592 72.2909 71.1242L70.2137 71.7044C68.8129 72.0445 67.4979 72.5947 66.1453 73.0499C65.476 73.2902 64.8203 73.5623 64.1809 73.8651L62.2433 74.7254L60.3915 75.7257C59.763 76.0388 59.157 76.3896 58.5774 76.7761C57.418 77.5464 56.2319 78.2766 55.1208 79.1669C50.5773 82.6226 46.5389 86.6178 43.1088 91.0508C39.6495 95.484 36.7987 100.303 34.6231 105.396C32.4598 110.481 31.0653 115.822 30.4795 121.266C29.8699 126.697 30.2767 132.185 31.6818 137.486C33.1678 142.831 35.3905 147.974 38.2943 152.786C43.9729 162.6 51.2456 171.863 56.4841 182.246C56.6047 182.509 56.6131 182.804 56.5076 183.073C56.4021 183.341 56.1907 183.561 55.9165 183.689C55.6423 183.817 55.3261 183.842 55.0326 183.76C54.739 183.678 54.4903 183.494 54.3372 183.246L54.3157 183.221Z" fill="#233940"/>
<path d="M69.2959 118.285C72.0049 122.02 74.1453 126.086 75.6561 130.369C77.1914 134.682 78.1451 139.156 78.4954 143.688C78.7301 148.229 78.2619 152.777 77.1053 157.193C76.0432 161.594 74.3289 165.836 72.0117 169.797C71.8666 170.044 71.6275 170.232 71.3413 170.324C71.0552 170.416 70.7426 170.404 70.4649 170.292C70.1873 170.18 69.9647 169.975 69.8407 169.718C69.7168 169.461 69.7005 169.17 69.795 168.902C71.214 164.865 72.2098 160.709 72.7685 156.493C73.2388 152.321 73.3608 148.122 73.1335 143.933C72.9108 135.463 70.8896 127.118 67.1865 119.38C67.0659 119.123 67.0525 118.834 67.1489 118.568C67.2454 118.303 67.4447 118.08 67.708 117.945C67.9712 117.809 68.2793 117.769 68.5721 117.834C68.8648 117.899 69.121 118.063 69.2905 118.295L69.2959 118.285Z" fill="#233940"/>
<path d="M84.0399 257.511C84.5766 253.555 85.3066 249.614 86.2244 245.697C87.1752 241.772 88.3487 237.897 89.74 234.088C92.5206 226.366 96.5731 219.093 101.752 212.531C103.062 210.886 104.436 209.335 105.906 207.82C107.358 206.293 108.891 204.835 110.501 203.453C113.699 200.621 117.205 198.106 120.962 195.951C124.736 193.776 128.827 192.119 133.108 191.029C137.37 189.955 141.793 189.544 146.199 189.814C146.519 189.818 146.825 189.94 147.048 190.154C147.271 190.368 147.395 190.656 147.39 190.954C147.386 191.253 147.255 191.537 147.025 191.745C146.796 191.954 146.487 192.068 146.167 192.064C142.068 192.214 138.015 192.932 134.144 194.195C130.313 195.477 126.682 197.226 123.345 199.397C120.013 201.596 116.916 204.088 114.097 206.839C113.388 207.535 112.669 208.21 111.998 208.94C111.327 209.67 110.608 210.351 109.953 211.096C109.298 211.841 108.606 212.551 107.973 213.312C107.339 214.072 106.636 214.812 106.03 215.552C100.975 221.645 96.8516 228.361 93.7762 235.509C92.1821 239.106 90.7936 242.779 89.6165 246.513C88.382 250.249 87.3676 254.055 86.3961 257.891C86.3335 258.177 86.1533 258.429 85.8942 258.594C85.6351 258.758 85.3174 258.821 85.0088 258.77C84.7002 258.72 84.4251 258.558 84.2421 258.321C84.0591 258.084 83.9827 257.79 84.0291 257.501L84.0399 257.511Z" fill="#233940"/>
</svg>
